<svg xmlns="http://www.w3.org/2000/svg" viewBox="0 0 133.54 133.54"><defs><style>.cls-1{fill:#0f1623;}</style></defs><g id="Layer_1" data-name="Layer 1"><g id="LOGO"><path id="With_border_2_1mm_full" data-name="With border 2+1mm full" class="cls-1" d="M67.92,29.69l3.22,5.57a4.47,4.47,0,0,1,0,4.45L55.27,67.12a9.78,9.78,0,0,0,8.46,14.67l.68,0a8.57,8.57,0,0,0,1.32-.19h0a1.08,1.08,0,0,1,1.14.49,5.22,5.22,0,0,1,.7,1.81,5.31,5.31,0,0,1-5.46,6.32h-29A1.48,1.48,0,0,1,31.83,88L65.35,29.69A1.48,1.48,0,0,1,67.92,29.69Z"/><path id="With_border_2_1mm_full-2" data-name="With border 2+1mm full" class="cls-1" d="M23.57,102.37l3.22-5.57a4.43,4.43,0,0,1,3.85-2.22l31.67,0a9.78,9.78,0,0,0,8.47-14.67l-.37-.55a10.68,10.68,0,0,0-.82-1.06h0a1.08,1.08,0,0,1-.15-1.23,5.1,5.1,0,0,1,1.21-1.51,5.32,5.32,0,0,1,8.21,1.57l14.49,25.11a1.48,1.48,0,0,1-1.28,2.22l-67.22.1A1.48,1.48,0,0,1,23.57,102.37Z"/><path id="With_border_2_1mm_full-3" data-name="With border 2+1mm full" class="cls-1" d="M108.69,104.44h-6.44a4.46,4.46,0,0,1-3.85-2.22L82.59,74.77a9.77,9.77,0,0,0-16.93,0l-.3.61a10.36,10.36,0,0,0-.5,1.24h0a1.07,1.07,0,0,1-1,.74A5.41,5.41,0,0,1,62,77.06a5.33,5.33,0,0,1-2.74-7.9l14.5-25.11a1.48,1.48,0,0,1,2.56,0L110,102.22A1.48,1.48,0,0,1,108.69,104.44Z"/></g></g></svg>